 <svg  version="1.0" xmlns="http://www.w3.org/2000/svg"  width="300.000000pt" height="300.000000pt" viewBox="0 0 300.000000 300.000000"  preserveAspectRatio="xMidYMid meet">  <g transform="translate(0.000000,300.000000) scale(0.100000,-0.100000)" fill="orange" stroke="none"><circle fill="#131f32" cx="1480" cy="1420" r="1400"/> <path d="M1455 2781 c-128 -61 -215 -180 -223 -306 -3 -52 0 -68 26 -117 l31 -57 -62 -29 c-34 -16 -136 -53 -227 -81 -471 -149 -588 -195 -604 -237 -32 -84 47 -140 234 -164 120 -16 962 -20 957 -5 -5 15 -156 72 -355 136 -57 18 -109 40 -115 49 -7 9 -20 19 -29 23 -42 15 -12 68 71 126 65 45 151 135 151 157 0 12 10 13 48 9 67 -9 184 18 249 57 57 35 117 111 134 171 14 49 11 145 -6 178 -21 39 -87 86 -148 104 -65 19 -62 20 -132 -14z"/> <path d="M1677 2325 c-31 -22 -87 -100 -87 -120 0 -11 10 -26 21 -34 49 -30 87 -48 129 -63 80 -28 150 -61 150 -73 0 -8 -19 -9 -67 -3 -97 11 -160 33 -223 76 -49 33 -56 42 -64 85 l-9 47 -56 2 c-101 3 -146 -3 -156 -19 -5 -9 -32 -41 -58 -72 -42 -48 -48 -60 -45 -95 2 -28 10 -44 28 -57 25 -18 214 -79 246 -79 22 0 102 -68 120 -103 24 -44 13 -55 -63 -62 -129 -11 -193 -27 -224 -52 -16 -14 -29 -29 -29 -35 0 -6 -12 -33 -26 -62 -34 -66 -84 -193 -84 -211 0 -7 -23 -61 -51 -120 l-52 -106 7 -82 c9 -98 33 -156 84 -195 54 -42 197 -117 288 -151 108 -40 157 -68 166 -91 4 -11 15 -116 24 -233 19 -255 29 -318 50 -310 8 3 14 17 14 32 0 42 48 245 86 359 19 57 34 110 34 117 0 15 203 31 271 22 56 -7 46 10 -27 47 -33 17 -87 52 -121 79 -34 26 -66 47 -72 47 -6 0 -11 1 -11 3 0 1 9 54 20 117 11 63 23 149 27 190 3 41 9 76 12 77 10 4 -6 583 -17 638 -6 28 -11 80 -11 118 -1 60 1 67 18 67 31 0 153 -47 275 -105 61 -29 143 -64 181 -78 39 -14 108 -40 155 -57 83 -31 205 -67 264 -78 25 -4 28 -2 23 12 -4 10 -7 19 -7 22 0 7 -110 74 -177 107 -101 50 -309 164 -379 208 -34 21 -95 55 -135 75 -41 21 -96 51 -123 66 -27 16 -70 36 -95 45 -59 19 -149 61 -181 84 -21 14 -28 15 -43 4z m-147 -1262 c23 -60 44 -121 47 -137 6 -29 6 -29 -18 -13 -13 9 -31 17 -40 17 -21 0 -106 75 -114 100 -8 26 52 140 75 140 4 0 27 -48 50 -107z"/> <path d="M480 1490 c0 -5 5 -10 10 -10 6 0 10 5 10 10 0 6 -4 10 -10 10 -5 0 -10 -4 -10 -10z"/> <path d="M2102 1132 c-29 -24 -34 -35 -39 -88 -4 -48 -1 -68 15 -101 38 -73 166 -109 225 -62 49 38 64 154 28 213 -30 48 -68 66 -138 66 -48 0 -64 -5 -91 -28z m162 -1 c3 -5 -4 -30 -15 -56 -16 -37 -20 -63 -17 -119 l3 -71 -35 3 c-40 3 -90 21 -90 32 0 4 7 14 16 21 40 33 68 94 68 147 0 52 0 52 33 52 17 0 34 -4 37 -9z"/> </g> </svg> 